<svg width="24" height="24" viewBox="0 0 24 24" fill="none" xmlns="http://www.w3.org/2000/svg">
<path d="M23.8053 10.0714L20.0484 0.610724C19.9767 0.433527 19.8296 0.278296 19.629 0.168221C19.4285 0.0581463 19.1853 -0.000862957 18.9358 9.5378e-06H5.06418C4.81468 -0.000862957 4.57149 0.0581463 4.37095 0.168221C4.17041 0.278296 4.02329 0.433527 3.95156 0.610724L0.194653 10.0714C-0.125729 10.8574 -0.0486694 11.7031 0.411398 12.45C1.33906 13.9696 2.7932 15.2798 4.62578 16.2471C6.45836 17.2145 8.60393 17.8045 10.844 17.9571V22.2857H6.22015C5.91357 22.2857 5.61954 22.376 5.40275 22.5368C5.18597 22.6975 5.06418 22.9155 5.06418 23.1429C5.06418 23.3702 5.18597 23.5882 5.40275 23.7489C5.61954 23.9097 5.91357 24 6.22015 24H17.7798C18.0864 24 18.3805 23.9097 18.5972 23.7489C18.814 23.5882 18.9358 23.3702 18.9358 23.1429C18.9358 22.9155 18.814 22.6975 18.5972 22.5368C18.3805 22.376 18.0864 22.2857 17.7798 22.2857H13.156V17.9571C15.3961 17.8045 17.5416 17.2145 19.3742 16.2471C21.2068 15.2798 22.6609 13.9696 23.5886 12.45C24.0487 11.7031 24.1257 10.8574 23.8053 10.0714ZM12 7.74194C8.2142 6.34908 5.69996 7.26429 3.57587 7.63929L5.93116 1.71429H18.0688L21.0744 9.26786C19.5283 9.75001 16.0748 9.25265 12 7.74194Z" fill="#141414"/>
</svg>
