<svg width="16" height="16" viewBox="0 0 16 16" fill="none" xmlns="http://www.w3.org/2000/svg">
<path d="M13 6.4988C13.0022 7.88164 12.5613 9.2288 11.742 10.3428C11.782 10.3728 11.82 10.4048 11.857 10.4408L15.707 14.2908C15.8946 14.4783 16.0001 14.7327 16.0002 14.998C16.0003 15.2632 15.895 15.5177 15.7075 15.7053C15.52 15.8929 15.2656 15.9984 15.0004 15.9985C14.7351 15.9986 14.4806 15.8933 14.293 15.7058L10.443 11.8558C10.4068 11.8201 10.3734 11.7816 10.343 11.7408H10.345C9.16682 12.6052 7.73174 13.0474 6.27138 12.996C4.81102 12.9446 3.41058 12.4026 2.29608 11.4575C1.18158 10.5124 0.418042 9.21938 0.128703 7.78704C-0.160637 6.35471 0.0411 4.86666 0.701353 3.56307C1.36161 2.25947 2.44186 1.21638 3.76776 0.602141C5.09366 -0.0120966 6.58785 -0.161645 8.00918 0.177633C9.43052 0.516911 10.6961 1.32522 11.6016 2.47211C12.5071 3.61899 12.9997 5.03754 13 6.4988V6.4988ZM6.50001 11.9988C7.22228 11.9988 7.93748 11.8565 8.60477 11.5801C9.27206 11.3037 9.87837 10.8986 10.3891 10.3879C10.8998 9.87717 11.3049 9.27085 11.5813 8.60356C11.8577 7.93627 12 7.22107 12 6.4988C12 5.77653 11.8577 5.06134 11.5813 4.39405C11.3049 3.72676 10.8998 3.12044 10.3891 2.60972C9.87837 2.09899 9.27206 1.69387 8.60477 1.41747C7.93748 1.14107 7.22228 0.998804 6.50001 0.998804C5.04132 0.998804 3.64237 1.57827 2.61092 2.60972C1.57947 3.64117 1.00001 5.04011 1.00001 6.4988C1.00001 7.9575 1.57947 9.35644 2.61092 10.3879C3.64237 11.4193 5.04132 11.9988 6.50001 11.9988V11.9988Z" fill="#141414"/>
</svg>
